# xmcd
#
# Track frame offsets: 
#        183
#        21683
#        47825
#        68915
#        83470
#        103983
#        123773
#        143908
#
# Disc length: 2155 seconds
#
# Revision: 2
# Processed by: cddbd v1.5.2PL0 Copyright (c) Steve Scherf et al.
# Submitted via: ExactAudioCopy v1.0b4
#
DISCID=6d086908
DTITLE=신촌Blues - Ⅲ
DYEAR=1990
DGENRE=Blues
TTITLE0=비오는 어느 저녁
TTITLE1=마지막 블루스
TTITLE2=나그네의 옛이야기
TTITLE3=비오는 날
TTITLE4=향수
TTITLE5=이별의 종착역
TTITLE6=그댄 바람에 안개로 날리고..
TTITLE7=신촌, 그 추억의 거리
EXTD=YEAR: 1990
EXTT0=
EXTT1=
EXTT2=
EXTT3=
EXTT4=
EXTT5=
EXTT6=
EXTT7=
PLAYORDER=
